<svg width="25" height="26" viewBox="0 0 20 21" fill="none" xmlns="http://www.w3.org/2000/svg">
<g clip-path="url(#clip0_174_2959)">
<path d="M1.20893 6.04069C0.929857 6.12043 0.676444 6.27166 0.473762 6.4794C0.27108 6.68715 0.126155 6.94422 0.0533278 7.22517C-0.0194996 7.50612 -0.0177053 7.80123 0.0585331 8.08127C0.134772 8.36132 0.282812 8.61661 0.488005 8.82187L3.33169 11.6622V17.1512H8.82655L11.6894 20.0099C11.8431 20.1649 12.0258 20.288 12.2272 20.3721C12.4286 20.4562 12.6446 20.4997 12.8629 20.5C13.0063 20.4997 13.1492 20.4812 13.2879 20.445C13.5688 20.3743 13.826 20.2308 14.0338 20.029C14.2415 19.8273 14.3925 19.5743 14.4714 19.2957L20.0004 0.5L1.20893 6.04069ZM1.67232 7.64339L15.8641 3.45954L5.00024 14.3059V10.9721L1.67232 7.64339ZM12.8737 18.8315L9.51747 15.4844H6.18372L17.0459 4.63135L12.8737 18.8315Z" fill="#22252A"/>
</g>
<defs>
<clipPath id="clip0_174_2959">
<rect width="25" height="26" fill="white" transform="translate(0 0.5)"/>
</clipPath>
</defs>
</svg>
